<?xml version="1.0" encoding="utf-8"?>
<!-- Generator: Adobe Illustrator 26.5.0, SVG Export Plug-In . SVG Version: 6.00 Build 0)  -->
<svg version="1.1" id="Layer_1" xmlns="http://www.w3.org/2000/svg" xmlns:xlink="http://www.w3.org/1999/xlink" x="0px" y="0px"
	 viewBox="0 0 600 600" style="enable-background:new 0 0 600 600;" xml:space="preserve">
<style type="text/css">
	.st0{fill:none;}
	.st1{fill:none;stroke:#020202;stroke-width:4;stroke-miterlimit:10;}
</style>
<g>
	<g>
		<path d="M329.9,286.6c3.7,6.4,8.6,8.4,14.5,7c5.6-1.3,7.6-6,8.7-11.2c0.8-3.5,1.6-7,2.9-10.4c0,2.5,0.1,5,0,7.4
			c-0.6,13-1.2,26.1-2,39.1c-0.3,5.4-0.9,10.9-1.8,16.3c-1,6.2-3.7,11.5-8.7,14.2c0.8,1.6,2,2.9,2,4.3c0.7,13.2,1.3,26.4,1.9,39.6
			c0.1,2.6,0.3,5.1,0.5,8.3c12.4,0,24.7,0,37.3,0c0,2.4,0,4.1,0,6.1c-35.3,0-70.6,0-106.5,0c0.4-4.2,0.8-7.9,1.1-11.6
			c1.1-13.2,2-26.3,3.2-39.5c0.6-6.3-1.8-11.4-5.3-16.5c-8.6-12.5-16.7-25.3-25.1-38c-3.3-5-3.4-10.2-1.5-15.6
			c3.3-9.1,6.4-18.4,9.7-27.5c2-5.5,4.1-6.6,9.3-4.5c12.7,5.1,25.3,10.4,37.8,15.8c0.9,0.4,1.8,2.3,1.7,3.4c-0.6,7-6,12.2-13.6,12
			c-6.3-0.2-12.5-1.8-18.8-2.8c-1.1-0.2-2.3-0.6-3.6-0.4c14.6,3.6,27.7,10,37.9,21.4c0.4-0.4,0.7-0.9,1.1-1.3
			c-5.4-4.8-10.9-9.5-16.1-14.1c3.3-1.1,7-2.2,10.9-3.5c0.8,4.7,3.7,8.1,8.9,9C322.3,294.7,327.2,293.4,329.9,286.6z"/>
		<path d="M169.3,485c-2.1,0-3.5,0-5.3,0c-2.6,12.6-5.1,25.1-7.7,37.7c-0.2,1-0.4,2.1-0.8,3.1c-1.1,3.2-3.3,5.4-6.8,4.5
			c-3.2-0.8-5.1-3.2-4.6-6.8c0.5-3.9,1.2-7.8,2-11.6c1.4-7,3.1-13.9,4.4-20.8c0.6-3.2,1.8-6.4-1.2-9.3c-0.7-0.7-0.3-2.6-0.3-4
			c0-8.7,0-17.5-0.9-26.6c-2.6,4.1-5,8.3-7.7,12.4c-1.9,2.7-3.8,5.5-6.2,7.8c-3.4,3.3-6.3,2.8-9.1-1.2c-1.8-2.6-3.2-5.4-5-8.6
			c-0.3,0.9-0.7,1.4-0.7,1.8c1.3,8.8,2.4,17.6,3.9,26.4c1,6.1-0.2,8.3-6.2,8.9c-2.7,0.2-3.3,1.2-3.3,3.6c0.1,7,0.1,14,0,21
			c0,4.6-2.3,7.3-6.1,7.4c-3.3,0.1-6-3.3-6-7.6c-0.1-6.2,0-12.5,0-18.7c0-2.4,0.7-4.9-3.4-4.9c-3.8,0-3.1,2.5-3.1,4.7
			c-0.1,6.5,0,13.1,0,19.6c0,4.2-2.3,6.7-6.1,6.8c-3.3,0.2-6-2.5-6.1-6.5c-0.1-8.2,0-16.4,0-24.4c-8.8-3.1-8.8-3.6-7.1-13.6
			c2.1-12.3,3.7-24.6,4.6-37.3c-4.2,5.8-8.5,11.5-12.4,17.4c-0.9,1.3-0.6,3.5-0.6,5.3c0,16.6,0,33.1,0,49.7c0,1.2,0.2,2.5-0.1,3.6
			c-0.3,1.1-1.2,2.1-1.9,3.1c-0.7-1-1.6-1.9-2-3c-0.3-0.9-0.1-2.1-0.1-3.2c0-16-0.2-31.9,0.2-47.9c0.1-4.6-3-5-5.5-6.4
			c-0.4-0.2-2.1,1-2.5,1.9c-0.5,1,0.1,2.5-0.3,3.6c-0.6,1.8-1.7,3.4-2.5,5.1c-0.8-1.6-2-3.1-2.3-4.8c-0.7-4.4,1.1-7.6,4.8-10.4
			c2.6-2,4-5.4,6.1-8.2c6.5-8.8,13-17.5,19.5-26.3c2.5-3.4,5.8-4.2,9.5-1.8c5.5,3.5,10.7,4.3,16.6,0.6c4-2.5,8.1-1.1,10.4,3
			c3.9,7,7.6,14.2,11.5,21.2c0.7,1.3,1.4,2.6,2.5,4.5c5.2-8.5,10.1-16.5,14.9-24.5c1-1.6,1.8-3.2,2.9-4.6c3.6-4.6,5.3-4.9,10.2-1.7
			c4.8,3.2,9.6,2.4,14.2-0.2c5.1-2.8,8.4-2.3,11.1,2.8c5.2,9.8,10.3,19.6,15.6,29.3c1.2,2.2,3.3,4.2,5.3,5.8
			c3.5,2.6,5.6,8.8,3.7,12.6c-0.4,0.8-1.9,1.8-2.3,1.6c-0.9-0.5-2-1.6-2.1-2.5c-0.3-2-0.1-4.2-0.1-7.2c-1.8,1.3-2.8,2.1-3.9,2.7
			c-1.2,0.6-2.5,1-4.3,1.8c0,1.4,0,3,0,4.6c0,15.3,0,30.7,0,46c0,1.1,0.3,2.3-0.1,3.1c-0.5,1-1.7,1.7-2.6,2.6
			c-0.7-0.8-1.8-1.5-2.1-2.5c-0.4-1.1-0.1-2.4-0.1-3.6c0-16.1-0.4-32.2,0.2-48.3c0.3-7.6-3.5-13-7.5-18.9c0,6,0.8,12.1-0.2,17.9
			c-2.9,17.1-2,34.3-2.3,51.4c-0.1,4-2.8,6.4-6.3,6.2c-3.6-0.1-5.9-2.6-5.9-6.6C169.3,511.1,169.3,498.3,169.3,485z"/>
		<path d="M517.6,500.4c-12.2,1-19.4-4.3-24.2-13.4c-1.2-2.3-2.6-4.5-4.1-6.6c-1.9-2.7-4.7-3.5-7.6-2.2c-2.9,1.3-4.5,3.9-3.7,7
			c0.9,3.4,2.1,6.6,3.6,9.8c1.2,2.6,0.5,4.1-2,4.8c-4.5,1.2-9.1,2.2-14.3,3.4c1.1,0.8,1.8,1.6,2.8,2.1c7.8,3.8,16.1,5.1,24.8,4.9
			c8.3-0.1,12.5,2.5,13.2,8.1c0.7,5.5-3.4,10.1-10.8,12.1c-16.5,4.5-37.5-3.4-47-17.7c-3.5-5.4-4.4-11.4-3.1-17.5
			c1-5.2,2.5-10.3,4.7-15.1c3.3-7.6,7.2-15.1,11.1-22.4c4.4-8.4,11.3-12.8,21-12.7c11.4,0.1,22.8,0,34.2,0c7.9,0,14.3,3,18.6,9.6
			c4,6.2,7.6,12.8,11,19.4c8.5,16.7,4.7,26.3-9,38.4c-3.6,3.2-8.5,5.3-13.2,6.8c-2.9,0.9-6.7,0.6-9.7-0.5c-5.3-1.9-6.3-7.6-2.6-11.9
			C512.7,504.9,514.7,503.2,517.6,500.4z M514.9,497.1c8.5,0,15.5-6.7,15.6-15.1c0.1-8.5-7-15.7-15.5-15.8
			c-8.3-0.1-15.4,6.9-15.6,15.3C499.3,490.1,506.2,497.1,514.9,497.1z"/>
		<path d="M287,124.8c-4.4,0.6-7.6,1.8-9.7,5.6c-2.8,4.9-6,9.5-9.2,14.1c-3.3,4.8-7.6,5.9-11.7,3.4c-4-2.5-5.1-7.4-2.3-12.1
			c3.9-6.5,7.9-13,12.3-19.2c1.8-2.4,4.6-4.5,7.5-5.6c9.7-4,19.5-7.6,29.4-11.1c11.2-3.9,19.3,2.8,17.7,14.6c-1,7.4-2.5,14.7-3.7,22
			c-0.2,1.3-0.3,2.6-0.6,4.4c5.1,1,9.8,2,14.6,2.7c8.2,1.3,14.2,5.4,18.2,12.9c4.2,7.9,8.9,15.5,13.5,23.3c0.1,0.2,0.5,0.3,1,0.7
			c1.6-0.8,3.3-1.7,5.1-2.4c4.3-1.7,7.6-0.7,10,2.9c2.4,3.7,2.6,8.2-0.8,10.8c-5.8,4.4-11.9,8.4-18.3,11.8c-3.9,2.1-6.8-1-8.8-4.4
			c-5.3-9.1-10.6-18.1-15.8-27.2c-1.7-3-3.8-4.6-7.4-5.1c-11-1.5-21.9-3.5-32.8-5.4c-7.1-1.2-11.5-6.2-11.1-13.3
			c0.4-5.9,1.6-11.7,2.4-17.6C286.5,128.7,286.7,126.9,287,124.8z"/>
		<path d="M496.5,438.9c-12.9-0.2-22.7-10.2-22.5-23c0.2-12.4,10.5-22.4,23-22.2c12.9,0.2,22.8,10.4,22.5,23.1
			C519.3,429.3,509.2,439,496.5,438.9z"/>
		<path d="M299.5,195.2c11.4-0.7,19.5-6,24.3-16.4c0.9-1.9,2.5-4,4.3-4.7c1.3-0.6,4.3,0.3,5.1,1.5c1.1,1.6,1.5,4.5,0.9,6.2
			c-4.5,12-13.2,19.8-25.7,23.1c-14.4,3.8-29.8-1.9-38.7-14c-8.8-12-9.6-27.9-1.9-40.7c0.7-1.2,1.5-2.3,2.3-3.4
			c2.2-3,5.1-4.1,8.2-1.7c3,2.3,2.6,5.2,0.6,8c-6.6,9.3-7.6,19.1-1.9,29.1C281.9,190.7,289.8,194.8,299.5,195.2z"/>
		<path d="M336.7,251.7c-2.9,11.3-5.6,22.6-8.9,33.8c-1.6,5.4-6.6,7.7-11.5,6.2c-5-1.5-7.2-5.1-6.1-11c2.1-10.9,4.4-21.7,6.6-32.5
			c0.1-0.7,0.3-1.5,0.7-2.1c4.4-5.8,9.4-1.3,14.1-0.7C335,245.9,336.5,248.2,336.7,251.7z"/>
		<path d="M302.2,83.5c0-8.4,6.9-15.3,15.4-15.3c8.6,0,15.7,7.1,15.6,15.6c-0.1,8.4-7.2,15.4-15.5,15.3
			C309,99.1,302.2,92.2,302.2,83.5z"/>
		<path d="M341.5,292.1c-5.9,0.1-10-3.6-9-9.2c1.7-10,4.2-19.8,6.5-29.7c0.2-0.7,0.7-1.4,1.3-1.8c4.5-3.6,8.7-0.4,12.9,0.8
			c3.2,0.9,3.7,3.9,3.1,6.7c-1.8,8.7-3.6,17.5-5.9,26.2C349.3,289.2,346.4,292.1,341.5,292.1z"/>
		<path d="M365.6,321.7c3.5,6.1,6.6,11.5,10,17.3c-2.1,0.2-3.6,0.4-5.6,0.6c0,19.9,0,39.7,0,59.8c-3.1,0-5.7,0-8.8,0
			c0-20,0-39.8,0-59.9c-1.9-0.2-3.3-0.3-5.6-0.5C358.9,333.3,362,327.9,365.6,321.7z"/>
		<path d="M310.1,267.9c-6.4-2.6-12.3-5-18.7-7.6c1.5-6.4,2.9-12.7,4.6-18.9c0.9-3.3,3.2-4.7,7-3.9c12.2,2.7,12.8,3.5,10.2,15.8
			C312.2,258,311.2,262.5,310.1,267.9z"/>
		<path d="M110.6,414.9c0,6.9-5.2,12.1-12,12c-6.6-0.1-11.7-5.2-11.7-11.8c0-7.3,4.8-11.9,12.5-11.8
			C105.7,403.4,110.6,408.4,110.6,414.9z"/>
		<path d="M177.5,413c-0.1,6.8-4.8,11.5-11.8,11.5c-6.5,0-11.8-5.3-11.9-11.7c-0.1-6.8,5.4-11.9,12.6-11.9
			C172.8,400.8,177.6,406,177.5,413z"/>
		<path d="M289.2,259.5c-5.9-2.5-11.2-4.7-16.3-7.1c-0.8-0.4-1.6-2.2-1.3-3.1c1.2-4.5,2.6-9,4.2-13.4c1.3-3.5,3.6-4.7,7.5-3.6
			c11.6,3.3,11.6,3.2,8.9,14.8C291.2,251,290.2,254.9,289.2,259.5z"/>
		<path d="M105.3,401.4c-4.5,0-8.8,0-13.5,0c0.4-3.4,2.7-5.5,6-6.2C101.5,394.4,104.5,397.2,105.3,401.4z"/>
	</g>
	<line class="st0" x1="122.9" y1="377.9" x2="227.5" y2="143.8"/>
	<line class="st1" x1="119.9" y1="376.5" x2="224.5" y2="142.4"/>
	<line class="st1" x1="499.4" y1="382.8" x2="395.3" y2="143.8"/>
	<line class="st1" x1="424.5" y1="481.6" x2="225.2" y2="481.6"/>
</g>
</svg>
