<?xml version="1.0" encoding="UTF-8"?>
<svg xmlns="http://www.w3.org/2000/svg" xmlns:xlink="http://www.w3.org/1999/xlink" width="80px" height="16px" viewBox="0 0 80 16" version="1.1">
<g id="surface1">
<path style=" stroke:none;fill-rule:nonzero;fill:rgb(8.627451%,41.568627%,54.901961%);fill-opacity:1;" d="M 17.742188 13.289062 L 14.414062 13.289062 L 26.527344 0.675781 L 32.074219 0.675781 L 32.074219 14.988281 L 26.527344 14.988281 L 26.527344 5.238281 L 28.191406 5.929688 L 19.425781 14.988281 L 12.773438 14.988281 L 3.984375 5.953125 L 5.671875 5.257812 L 5.671875 14.988281 L 0.125 14.988281 L 0.125 0.675781 L 5.671875 0.675781 Z M 34.292969 14.988281 L 34.292969 0.675781 L 48.273438 0.675781 C 51.140625 0.675781 53.257812 0.957031 54.621094 1.523438 C 55.976562 2.089844 56.660156 3.074219 56.660156 4.476562 C 56.660156 5.375 56.363281 6.058594 55.769531 6.535156 C 55.195312 7.011719 54.359375 7.347656 53.265625 7.542969 C 52.183594 7.722656 50.882812 7.832031 49.359375 7.875 L 49.535156 7.695312 C 50.648438 7.695312 51.675781 7.726562 52.621094 7.785156 C 53.566406 7.847656 54.398438 7.980469 55.105469 8.1875 C 55.816406 8.398438 56.371094 8.722656 56.769531 9.152344 C 57.167969 9.585938 57.371094 10.179688 57.371094 10.941406 C 57.371094 11.863281 57.046875 12.625 56.390625 13.222656 C 55.742188 13.820312 54.816406 14.265625 53.621094 14.566406 C 52.421875 14.847656 51.007812 14.988281 49.382812 14.988281 Z M 39.84375 10.785156 L 49.382812 10.785156 C 50.167969 10.785156 50.726562 10.710938 51.066406 10.5625 C 51.421875 10.414062 51.601562 10.171875 51.601562 9.84375 C 51.601562 9.621094 51.519531 9.441406 51.355469 9.308594 C 51.210938 9.175781 50.972656 9.078125 50.648438 9.019531 C 50.320312 8.945312 49.902344 8.90625 49.382812 8.90625 L 39.84375 8.90625 Z M 39.84375 6.757812 L 48.449219 6.757812 C 49.234375 6.757812 49.796875 6.683594 50.136719 6.535156 C 50.492188 6.386719 50.667969 6.148438 50.667969 5.820312 C 50.667969 5.476562 50.492188 5.238281 50.136719 5.105469 C 49.796875 4.957031 49.234375 4.882812 48.449219 4.882812 L 39.84375 4.882812 Z M 57.917969 9.734375 L 63.972656 9.734375 C 64.078125 10.046875 64.382812 10.3125 64.882812 10.539062 C 65.386719 10.746094 66.058594 10.910156 66.902344 11.03125 C 67.761719 11.132812 68.75 11.1875 69.875 11.1875 C 70.984375 11.1875 71.855469 11.15625 72.492188 11.097656 C 73.144531 11.023438 73.601562 10.90625 73.867188 10.742188 C 74.132812 10.5625 74.265625 10.324219 74.265625 10.023438 C 74.265625 9.742188 74.054688 9.523438 73.625 9.375 C 73.195312 9.210938 72.433594 9.097656 71.339844 9.039062 C 70.246094 8.980469 68.707031 8.949219 66.722656 8.949219 C 65.246094 8.949219 63.964844 8.886719 62.886719 8.75 C 61.824219 8.601562 60.941406 8.378906 60.246094 8.078125 C 59.566406 7.765625 59.0625 7.378906 58.738281 6.914062 C 58.414062 6.4375 58.25 5.871094 58.25 5.214844 C 58.25 4.082031 58.625 3.148438 59.382812 2.417969 C 60.148438 1.671875 61.300781 1.121094 62.839844 0.761719 C 64.394531 0.390625 66.332031 0.207031 68.652344 0.207031 C 72.058594 0.207031 74.652344 0.703125 76.441406 1.703125 C 78.246094 2.6875 79.148438 4.109375 79.148438 5.976562 L 73.402344 5.976562 C 73.328125 5.484375 72.871094 5.109375 72.027344 4.855469 C 71.183594 4.589844 69.984375 4.453125 68.429688 4.453125 C 66.894531 4.453125 65.75 4.542969 64.992188 4.722656 C 64.253906 4.902344 63.886719 5.210938 63.886719 5.640625 C 63.886719 5.863281 63.988281 6.042969 64.195312 6.175781 C 64.402344 6.3125 64.757812 6.421875 65.261719 6.511719 C 65.777344 6.585938 66.503906 6.636719 67.433594 6.667969 C 68.367188 6.699219 69.546875 6.710938 70.984375 6.710938 C 72.566406 6.710938 73.914062 6.796875 75.023438 6.960938 C 76.132812 7.109375 77.027344 7.339844 77.707031 7.652344 C 78.402344 7.964844 78.90625 8.367188 79.21875 8.859375 C 79.527344 9.339844 79.679688 9.90625 79.679688 10.5625 C 79.679688 11.695312 79.324219 12.621094 78.617188 13.335938 C 77.90625 14.050781 76.78125 14.582031 75.246094 14.921875 C 73.707031 15.265625 71.695312 15.4375 69.207031 15.4375 C 67.804688 15.4375 66.511719 15.355469 65.328125 15.191406 C 64.160156 15.027344 63.117188 14.789062 62.199219 14.476562 C 61.28125 14.148438 60.503906 13.75 59.867188 13.289062 C 59.234375 12.8125 58.742188 12.28125 58.402344 11.699219 C 58.078125 11.105469 57.917969 10.449219 57.917969 9.734375 Z M 57.917969 9.734375 "/>
</g>
</svg>
