<svg width="112" height="22" viewBox="0 0 112 22" fill="none" xmlns="http://www.w3.org/2000/svg">
<path d="M24.8377 18.3461H20.1783L37.1382 0.827172H44.9037V20.7069H37.1382V7.16379L39.4679 8.12676L27.1983 20.7069H17.8797L5.57917 8.15779L7.93986 7.1949V20.7069H0.174343V0.827172H7.93986L24.8377 18.3461ZM48.0123 20.7069V0.827172H67.5814C71.5986 0.827172 74.56 1.22062 76.4655 2.00752C78.3703 2.79441 79.3228 4.16117 79.3228 6.10773C79.3228 7.35021 78.909 8.30269 78.0807 8.96538C77.2731 9.62807 76.1028 10.094 74.5703 10.3632C73.0586 10.6117 71.2365 10.767 69.1034 10.8291L69.3517 10.5806C70.9048 10.5806 72.3441 10.6221 73.6697 10.7049C74.9952 10.7877 76.1545 10.9741 77.1483 11.264C78.1428 11.5539 78.9193 11.9991 79.4779 12.5997C80.0372 13.2002 80.3172 14.0286 80.3172 15.0846C80.3172 16.3686 79.8614 17.4247 78.9503 18.253C78.0393 19.0812 76.7448 19.7025 75.0676 20.1167C73.3903 20.5101 71.4124 20.7069 69.1345 20.7069H48.0123ZM55.7779 14.8672H69.1345C70.2324 14.8672 71.0193 14.7637 71.4952 14.5566C71.9924 14.3495 72.2407 14.0181 72.2407 13.5626C72.2407 13.252 72.1269 13.0034 71.8993 12.8171C71.6917 12.6308 71.3607 12.4961 70.9048 12.4133C70.4496 12.3097 69.8593 12.258 69.1345 12.258H55.7779V14.8672ZM55.7779 9.276H67.8297C68.9276 9.276 69.7145 9.17248 70.1903 8.96538C70.6876 8.75835 70.9359 8.42697 70.9359 7.97145C70.9359 7.4951 70.6876 7.16379 70.1903 6.97745C69.7145 6.77041 68.9276 6.66683 67.8297 6.66683H55.7779V9.276ZM81.0828 13.4073H89.5628C89.7076 13.8421 90.1317 14.2149 90.8359 14.5255C91.54 14.8154 92.4821 15.0432 93.6628 15.2089C94.8634 15.3538 96.251 15.4263 97.8248 15.4263C99.3779 15.4263 100.6 15.3849 101.49 15.3021C102.401 15.1985 103.043 15.0329 103.416 14.8051C103.789 14.5566 103.975 14.2253 103.975 13.8111C103.975 13.4177 103.675 13.1173 103.074 12.9103C102.474 12.6825 101.408 12.5272 99.8752 12.4443C98.3434 12.3616 96.189 12.3201 93.4145 12.3201C91.3434 12.3201 89.5524 12.2269 88.0407 12.0406C86.5497 11.8335 85.3172 11.5229 84.3441 11.1087C83.3917 10.6738 82.6876 10.1354 82.2317 9.49345C81.7766 8.83076 81.5483 8.04393 81.5483 7.13276C81.5483 5.55897 82.0765 4.26462 83.1324 3.25C84.2097 2.21455 85.8248 1.44841 87.9786 0.951379C90.1524 0.433724 92.8655 0.174828 96.1166 0.174828C100.879 0.174828 104.514 0.868551 107.019 2.256C109.546 3.62276 110.809 5.60035 110.809 8.18883H102.763C102.661 7.50552 102.018 6.98779 100.838 6.63573C99.6572 6.26304 97.98 6.07662 95.8055 6.07662C93.6524 6.07662 92.0476 6.2009 90.9917 6.44938C89.9559 6.69786 89.4386 7.12234 89.4386 7.7229C89.4386 8.03352 89.5834 8.28207 89.8731 8.46842C90.1628 8.65476 90.66 8.81007 91.3641 8.93435C92.089 9.03793 93.1035 9.11035 94.4083 9.15179C95.7124 9.19324 97.3697 9.21393 99.3779 9.21393C101.594 9.21393 103.478 9.32779 105.031 9.55559C106.584 9.76262 107.837 10.0837 108.79 10.5185C109.763 10.9534 110.467 11.5125 110.902 12.1959C111.337 12.8586 111.554 13.6454 111.554 14.5566C111.554 16.1303 111.057 17.4143 110.063 18.4083C109.069 19.4023 107.496 20.1374 105.342 20.6137C103.189 21.09 100.372 21.3281 96.8931 21.3281C94.9262 21.3281 93.1138 21.2143 91.4572 20.9864C89.8214 20.7586 88.3614 20.4273 87.0779 19.9924C85.7938 19.5369 84.7062 18.9881 83.8159 18.3461C82.9255 17.6835 82.2421 16.9483 81.7662 16.1408C81.3103 15.3125 81.0828 14.4012 81.0828 13.4073Z" fill="#166A8C"/>
</svg>
