<?xml version="1.0" encoding="utf-8"?>
<!-- Generator: Adobe Illustrator 26.5.0, SVG Export Plug-In . SVG Version: 6.00 Build 0)  -->
<svg version="1.1" id="Layer_1" xmlns="http://www.w3.org/2000/svg" xmlns:xlink="http://www.w3.org/1999/xlink" x="0px" y="0px"
	 viewBox="0 0 600 600" style="enable-background:new 0 0 600 600;" xml:space="preserve">
<g>
	<path d="M309.8,231.3C309.4,161.2,365.7,110.7,425,107c83.5-5.1,135,59.4,136.1,120.6c1.4,77.3-56.6,127.6-122,129.9
		C366.9,360.1,308,300.8,309.8,231.3z M455.6,174.3c7.3,0,14-0.2,20.6,0.1c4.8,0.2,7.2-1.3,7-6.5c-0.2-4.8-0.1-9-6.7-9
		c-27.3,0.1-54.7,0-82,0c-5.5,0-6.6,2.1-6.6,9.1c-0.1,4.8,2,6.5,6.6,6.4c9.6-0.2,19.3,0.4,28.9-0.3c9-0.6,15,3.8,20.7,9.5
		c1.1,1.1,1.4,3,2,4.5c-1.5,0.5-3.1,1.4-4.6,1.4c-15.4,0.1-30.9,0.1-46.3-0.2c-5.5-0.1-7.6,1.8-7.4,7.4c0.3,7.3,0.6,8,7.2,8
		c16.4,0,32.8,0,49.2,0c6.7,0,8.6,2.7,5.3,8.6c-6.9,12.4-17,20.2-31.8,20.5c-7.7,0.1-15.4,0-23.1-0.1c-4.5-0.1-6.7,1.3-6.7,6.3
		c0,4.6,1.3,8.1,4.5,11.3c16.4,16.1,32.5,32.4,48.8,48.6c4.7,4.7,17.7,6.2,24.6,2.4c-1-1.4-1.9-2.8-3-4
		c-15.4-15.4-30.9-30.7-46.3-46.1c-1.4-1.4-2.5-3.3-3.8-5.1c6.9-1.2,12.9-1.7,18.4-3.5c15.7-5.1,28.9-13.7,33-30.8
		c1.6-6.6,4.1-8.5,10.4-8.1c8.5,0.5,8.5-0.1,8.9-8.5c0.3-6.3-3.1-6.8-8-6.7C463.7,189.6,458.9,186,455.6,174.3z"/>
	<path d="M269.5,449.4c1.1,0.5,2.2,1.3,3.4,1.4c25.5,2.2,51,4.9,76.6,6.1c8.9,0.4,18.5-2,27-5.1c14.5-5.3,21.4-19.5,17.8-34.6
		c-1.1-4.5,1.1-5.9,4.7-6.9c18.5-5.3,37.1-10.6,55.6-15.8c8.2-2.3,16.4-4.4,24.5-6.7c9.2-2.5,18.3-2.4,27.3,0.6
		c4.8,1.6,9.9,3.6,10.2,9.6c0.4,7.7,2.2,16.1-7.5,20.3c-12.5,5.5-25,11.1-37.4,16.8c-36.1,16.7-70.9,35.8-104.6,56.9
		c-8.8,5.5-17.8,7-28.1,6c-40.5-4-81.1-7-121.8-3.8c-29.3,2.4-56.2,11.3-79.1,30.5c-1.8,1.5-5.1,2.4-7.2,1.8
		c-24.9-6.9-48.9-15.9-68.5-33.5c-6.9-6.2-11.8-14.5-17.7-21.8c-1.1-1.4-2.6-2.5-3.9-3.7c-0.7-0.7-1.3-1.5-2-2.2
		c0.8-0.6,1.5-1.5,2.4-1.8c29.3-8.1,57.4-19.2,84.9-31.9c23-10.6,44.8-23.2,64.7-39c11.2-8.8,24.5-11.3,38.3-8.8
		c13.5,2.4,26.6,6.4,40.1,8.8c13.2,2.4,26.6,4,40,5.5c17.6,2,35.3,3.2,52.9,5.4c8.6,1.1,16.7,4.3,19.9,13.6
		c4.6,13.7-4.6,27.1-20.4,28.1c-10.7,0.7-21.5-0.9-32.3-0.9c-16.9,0-33.9,0.3-50.8,0.8c-3.1,0.1-6.2,1.6-9.3,2.4
		C269.4,448.2,269.4,448.8,269.5,449.4z"/>
	<path d="M339.1,117.6c-28.3,0-56.6,0.4-84.8-0.2c-13.7-0.3-27.5-2.1-41.1-4.2c-12.7-2-25.2-5.2-37.7-7.9c-1.9-0.4-4-0.9-5.4-2
		c-2.7-2.3-6.2-4.8-6.8-7.8c-0.4-1.7,3.8-5.2,6.6-6.6c13.7-7.3,29-9.1,44-10.7c15.4-1.7,31-2.5,46.5-3.3c16.7-0.8,33.4-2.1,50.1-1.3
		c21.2,1,42.4,3.5,63.5,6.1c8.5,1,16.9,3.7,25.3,5.7c1.3,0.3,2.3,1.7,3.4,2.6c-1.2,1-2.3,2.7-3.6,3c-18.3,3.8-34.3,12.3-49.6,22.6
		c-2.8,1.9-6.7,2.3-10.1,3.4C339.3,117.1,339.2,117.4,339.1,117.6z"/>
	<path d="M338.6,356.1c-27,0-53.9,0.5-80.9-0.2c-14.9-0.4-29.9-2.1-44.6-4.2c-12.7-1.9-25.3-4.7-37.7-8.1
		c-10.9-2.9-12.9-6.5-12.9-17.9c0-6.2,0.1-12.3-0.1-18.5c-0.1-4.3,1.2-6.3,5.9-4.6c18.2,6.6,37.3,8.6,56.4,10.9
		c27.7,3.4,55.3,2.7,83,2.8c5.3,0,8.7,1.7,12.3,5.7c7.8,8.8,16.6,16.6,24.9,24.9c1.8,1.8,3,4,4.6,6c-2.3,0.6-4.5,1.3-6.9,1.8
		c-1.3,0.3-2.7,0-4,0C338.6,355.2,338.6,355.7,338.6,356.1z"/>
	<path d="M274.6,178.1c-16-1.3-32.1-2.1-48.1-4.1c-15.4-1.9-30.6-4.9-45.9-7.7c-3.9-0.7-7.8-2.4-11.4-4.1c-4.4-2.2-7.2-5.5-6.9-11
		c0.3-7.3,0.1-14.6,0-22c-0.1-4.4,1.7-6.2,6-4.5c15.2,6,31.2,7.8,47.2,9.8c30.4,3.8,60.8,4.9,91.4,4.5c3.4-0.1,6.8-0.8,10.2-1.2
		c1.1-0.1,2.9,0.1,3.1,0.5c0.3,1.1,0.2,2.6-0.4,3.6c-6.2,10.4-12.3,20.8-19,30.9c-1.4,2.1-4.7,4-7.2,4.2c-6.3,0.6-12.7,0.2-19.1,0.2
		C274.7,177.6,274.7,177.8,274.6,178.1z"/>
	<path d="M282.7,297.3c-21.6-1.7-43.3-2.9-64.8-5.4c-13.7-1.6-27.2-4.7-40.7-7.8c-12.4-2.9-14.7-6.4-14.7-18.9
		c0-6.2,0-12.3-0.1-18.5c0-3.5,1.2-5.1,5-3.6c17.4,6.6,35.6,8.5,53.9,10.9c21.1,2.8,42.1,3,63.2,2.7c4.6-0.1,6.5,2.3,7.7,6.3
		c2.7,9,5.5,18,8.4,26.9c1.8,5.5,1.1,6.5-4.6,6.6c-4.4,0.1-8.9,0-13.3,0C282.7,296.7,282.7,297,282.7,297.3z"/>
	<path d="M162.5,200.3c0-3.9,0-7.7,0-11.6c-0.1-4.5,2.2-6.2,6.2-4.6c17.7,7.1,36.7,8.3,55.2,11.3c7.9,1.3,16,1.3,24.1,1.6
		c12.8,0.6,25.6,1.1,38.5,1.6c4.2,0.1,5.4,2.5,5,6.1c-1,9.5-1.9,19.1-3.4,28.5c-0.2,1.5-3.5,3.6-5.3,3.6c-9.2-0.1-18.4-0.9-27.5-1.4
		c-9-0.5-18-0.8-27-1.6c-18.9-1.6-37.8-3.8-55.8-10.7c-8.3-3.2-10-6-10-14.7C162.5,205.7,162.5,203,162.5,200.3
		C162.5,200.3,162.5,200.3,162.5,200.3z"/>
</g>
</svg>
