<?xml version="1.0" encoding="utf-8"?>
<!-- Generator: Adobe Illustrator 26.5.0, SVG Export Plug-In . SVG Version: 6.00 Build 0)  -->
<svg version="1.1" id="Layer_1" xmlns="http://www.w3.org/2000/svg" xmlns:xlink="http://www.w3.org/1999/xlink" x="0px" y="0px"
	 viewBox="0 0 600 600" style="enable-background:new 0 0 600 600;" xml:space="preserve">
<g>
	<path d="M435.6,187c-2.8,11.2-7,14.4-19.3,13.9c-4-0.2-5.8,0.8-7.5,4.6c-4.7,10.6-16.5,14.9-27.8,10.4c-3.1-1.2-6-3.1-9.4-4.8
		c-10.3,17.6-26.9,17.4-44.2,15.3c-15.6-1.9-15.6-1.8-15.4-17.3c0.1-11.8,0-23.5,0-36.3c9.2,1.3,12-4.4,14.9-10.8
		c1.2-2.6,4.7-5.3,7.5-5.7c5-0.7,10.8-1,15.3,0.9c23.4,10.2,48.3,10.7,73.1,11.4c13.8,0.4,27.6,0.1,41.5,0.1
		C462.8,182.1,453.6,187.6,435.6,187z"/>
	<path d="M289.2,172.9c0,16.1,0.1,31.5-0.2,46.9c0,1.5-2.1,4.2-3.5,4.4c-10.7,1.2-21.5,2.8-32.2,2.4c-10.3-0.3-18.4-6.1-23.3-15.5
		c-4.3,2-8.1,4.2-12.2,5.5c-10.7,3.2-20.9-1.2-25.4-11.5c-1.7-4-3.8-4.5-7.7-4.3c-11.8,0.5-16.1-2.8-18.9-13.7
		c-19.5-0.5-26.8-4.8-29-18.5c14.2,0,28.2,0.7,42.2-0.2c18.7-1.2,37.4-3.5,56-5.9c5.2-0.7,10.1-3.9,15.3-5.1
		c5-1.1,10.2-1.6,15.4-1.6c4.5,0,7.9,2.5,9.3,7.2C277.1,169.4,281,173.4,289.2,172.9z"/>
	<path d="M289.8,339.2c-7.7,4.1-14.9,8.1-22.3,11.7c-1.5,0.7-4.2,0.5-5.7-0.4c-18.7-11.6-21.8-31.5-7.4-48.5
		c12.3-14.4,28.8-19,47-20.5c14.3-1.2,28.4-4.2,42.5-7c4.4-0.9,8.4-3.6,12.4-5.9c4-2.3,5.4-6.8,3.2-10.3c-1.2-1.8-5.8-2.1-8.9-1.9
		c-2.1,0.1-4.3,2-6.1,3.5c-6.9,5.7-14.6,5.9-22.7,3.8c-5.1-1.3-7.1-4.8-6.3-10c1.6-9.9,9.3-18.3,19.3-18.4
		c9.9-0.1,20.2,0.5,29.6,3.3c18.7,5.6,23.9,25.2,11.2,40.1c-14.1,16.6-33.3,23.7-54.2,26.8c-9.7,1.4-19.5,2-29.2,3.5
		c-6.6,1.1-14.1,1.9-15.7,10.5c-1.4,7.7,2.3,13.6,11.2,18.6C288.4,338.3,289.1,338.7,289.8,339.2z"/>
	<path d="M307.4,275.6c-4.7,0.3-8.8,0.5-13.8,0.7c0-9.9,0-19,0-28.2c-0.2-28.2-0.3-56.4-0.6-84.6c0-2-1-4.8-2.5-5.9
		c-15.3-11.4-14.1-27.5,2.9-36.7c0.3-0.2,0.6-0.5,2.2-1.9c-7.6-7.1-15.5-13.9-22.7-21.3c-7.6-7.8-5.8-20.1,3-26.1
		c6.9-4.6,14.7-3.5,23.4,3.4c7.7-6.8,16.3-9.4,25.1-2.1c7.1,5.8,8,13.5,4.3,21.7c8.3,2.1,8.6,2.9,8.3,12.3
		c-0.3,7.6-6.1,5.8-10.4,6.6c-2,10.4-2,10.4-12.1,11.2c0.9,1.5,1.6,2.8,2.5,4.1c5.9,8.9,4.6,20.5-4,26.9c-4,3-4.8,6.1-4.8,10.5
		c-0.1,34.6-0.4,69.2-0.6,103.8C307.7,271.6,307.5,273.2,307.4,275.6z M322.2,110.7c3.2-3.8,11.5,2.7,11.1-6.7c-0.4-9-8-1.7-11.3-6
		c-0.2-2.5-0.4-5.9-0.6-9.4c-3.3,0-5.8,0-8.8,0c-0.3,3.7-0.6,7.2-0.9,11.1c-3.6,0-7,0-10.4,0c0,3.4,0,6.2,0,9.3
		c3.7,0.2,7,0.4,10.5,0.6c0.2,3.8,0.5,7.1,0.7,10.7c3.1,0,5.8,0,8.9,0C321.6,116.6,321.9,113.3,322.2,110.7z"/>
	<path d="M291.4,393.5c-6.5,3.7-12.9,7.4-19.4,10.8c-1.1,0.6-3.1,0.4-4.2-0.3c-16.3-9.5-18.5-27.6-5-40.9
		c9.8-9.6,22.1-14.7,34.9-19.3c6.7-2.4,13.6-5.2,19.3-9.2c9.2-6.4,9.6-14.5,2.4-22.7c9.7-2.2,19.5-4.5,29.6-6.8
		c8.9,10.5,8.3,27.3-1.7,37.6c-9.8,10.1-22.5,14.9-35.5,19.3c-5.7,1.9-11.4,3.7-17,5.8C280.6,373.2,277.4,384.4,291.4,393.5z"/>
	<path d="M289.5,435.6c-5.4,3.5-10.4,6.7-15.5,10c-8.4-5-10.9-13.3-7.2-24.2c2.8-8.3,8.9-13.7,16.5-17.4c4.1-2,8.5-3.4,12.8-5
		c4.3-1.6,8.7-3,12.9-4.9c5.1-2.4,11.1-4.8,10.8-11.5c-0.3-6.7-6.6-8.8-12.8-12.9c0,4.4,0,7.4,0,10.4c0.1,10.1-0.9,11.1-12.4,12.6
		c0-5.4-0.2-10.8,0.1-16.2c0.1-1.4,1.4-3.5,2.6-4c11.4-4.3,22.9-8.3,34.5-12.2c1-0.3,3,0.7,4,1.6c14.6,13.8,11.7,36.1-6.3,45.2
		c-8.1,4.1-17.2,6.6-25.8,9.8c-3,1.1-6,2.2-8.9,3.6C287,424.5,286,427.4,289.5,435.6z"/>
	<path d="M277.9,279.2c-5.4,2.6-10.4,4.5-15,7.3c-4.4,2.7-8.3,6.2-13,9.8c-10.6-4.7-20.7-10.8-27.4-21.4c-9-14.4-4.1-30.1,11.5-36.7
		c10.6-4.4,21.8-5.1,33.1-3.8c9.2,1.1,16.4,8.7,17.9,17.9c1,5.9-1,9.4-6.8,10.7c-7.8,1.7-15.5,1.7-22.1-4.1
		c-2.2-1.9-5.1-3.5-7.8-3.8c-2.4-0.3-7.1,1.3-7.1,2c0,3.3,0.3,7.9,2.4,9.6c4.5,3.4,10,5.7,15.4,7.6
		C264.9,276.5,271.3,277.6,277.9,279.2z"/>
	<path d="M307.6,422.3c-0.5,9.3-6.9,10-12.7,12c-2.2-5.8-0.7-9.1,4.9-10.9c9.7-3.2,19.3-6.6,28.8-9.9c8.7,12.7,3.9,31.9-10.2,38.6
		c-6.2,3-13.2,4.6-19.9,6.4c-5.4,1.4-8.7,3.8-7.6,9.9c0.3,1.7,0.5,3.8-0.1,5.3c-0.7,1.9-2,3.9-3.6,4.9c-0.9,0.6-3.4-0.3-4.5-1.2
		c-2.7-2.3-5.4-4.9-7.4-7.8c-4.8-6.7-4.7-13.7,1.7-18.8c6.8-5.4,14.8-9.3,22.3-13.7c2.7-1.6,5.9-2.6,8.5-4.4
		C311.9,430,311.9,428,307.6,422.3z"/>
	<path d="M265.5,498c7.5-5,15.1-10,22.6-15.1c7.3-5,16.5-7.7,19.7-17.4c-4.1,2.8-8.1,5.7-12.5,8.7c-1.6-9.6-1.5-9.3,6.1-11.6
		c9.1-2.8,18-6.1,27.4-9.4c3.1,4,3.5,10.5-0.8,16c-2.9,3.7-6.6,7.3-10.7,9.3c-15.5,7.4-31.3,14.2-47.1,21.2c-1,0.4-2.3,0.3-3.4,0.5
		C266.3,499.4,265.9,498.7,265.5,498z"/>
	<path d="M307.7,490.9c-0.9,11.5-1.6,22.7-2.9,33.7c-0.3,2.3-2.5,4.3-3.9,6.4c-1.3-2.1-3.6-4.1-3.9-6.3c-1.2-8.7-1.6-17.5-2.6-26.2
		c-0.4-3.6,1-5.4,4.3-6.7c5.6-2.2,10.9-4.9,16.4-7.3c1-0.5,2.6-1.3,3.2-0.9c6.2,4.1,12.6,8,17.1,14c-0.4,0.7-0.8,1.5-1.2,2.2
		C325.7,496.8,316.9,493.9,307.7,490.9z"/>
	<path d="M307.3,312.3c0,6.9,0.4,12.9-0.2,18.8c-0.2,1.8-2.8,3.7-4.7,4.8c-2.1,1.3-4.7,1.7-7.9,2.7c0-8.5,0-16.3,0-24.6
		C298.5,313.4,302.5,312.9,307.3,312.3z"/>
</g>
</svg>
