<?xml version="1.0" encoding="utf-8"?>
<!-- Generator: Adobe Illustrator 26.5.0, SVG Export Plug-In . SVG Version: 6.00 Build 0)  -->
<svg version="1.1" id="Layer_1" xmlns="http://www.w3.org/2000/svg" xmlns:xlink="http://www.w3.org/1999/xlink" x="0px" y="0px"
	 viewBox="0 0 600 600" style="enable-background:new 0 0 600 600;" xml:space="preserve">
<path d="M383.7,482.6c-19.4,0-38.7-0.1-58.1,0.1c-4.9,0.1-6.5-1.7-6.4-6.4c0.1-6.4-0.4-12.8-0.5-19.2c-0.1-3.7-1.8-5.1-5.4-5
	c-11.4,0.1-22.7,0.1-34.1,0c-3.9,0-5.4,1.7-5.4,5.5c0,6.5-0.4,13.1-0.4,19.6c0,3.9-1.5,5.4-5.4,5.4c-39.5-0.1-79.1,0-118.6,0
	c-4.5,0-5.3-1.1-4.1-5.6c10.5-39.8,21.1-79.7,31.5-119.5c9.4-35.8,18.7-71.7,28.2-107.5c9.4-35.5,18.9-71,28.3-106.5
	c1.8-6.8,3.6-13.6,5.3-20.4c0.9-3.6,2.6-5.4,6.6-5.3c12.5,0.2,25,0.2,37.4,0c4,0,5.5,1.4,5.2,5.4c-0.5,6.5-0.7,13.1-1.2,19.6
	c-0.3,3.9,1,5.7,5.1,5.4c3-0.3,6.1-0.2,9.1,0c4.4,0.4,5.6-1.6,5.3-5.7c-0.5-6.5-0.7-13.1-1.1-19.6c-0.3-3.7,1.3-5.2,5-5.1
	c12.8,0.1,25.6,0.1,38.4,0c3.7,0,5,2.2,5.8,5.2c3.6,13.6,7.1,27.2,10.7,40.8c7.4,28.2,14.9,56.5,22.3,84.7
	c7.2,27.3,14.3,54.7,21.6,82c8.7,32.9,17.4,65.8,26.1,98.6c4.3,16.2,8.6,32.4,12.9,48.6c1.2,4.3-1.1,4.9-4.6,4.9
	C423.4,482.6,403.5,482.6,383.7,482.6z M277.6,364.8c0.1,0,0.3,0,0.4,0c-0.6,12.1-1.2,24.2-1.9,36.3c-0.2,3.2,0.1,5.7,4.3,5.7
	c10.6-0.1,21.1,0,31.7,0c3.2,0,4.6-1.4,4.5-4.7c-1.1-24.9-2.2-49.7-3.3-74.6c-0.1-3.2-1.4-4.6-4.7-4.5c-8.2,0.1-16.3,0.1-24.5,0
	c-3.2,0-4.6,1.2-4.7,4.5C278.9,339.9,278.2,352.4,277.6,364.8z M311,236.3c-0.9,0-1.7,0-2.6,0c0-12.3-0.1-24.6,0-36.8
	c0-4.2-1.5-6.2-6-5.9c-4.1,0.3-8.3,0.2-12.5,0c-3.8-0.2-5.6,1.3-5.7,5.2c-0.8,24.7-1.8,49.4-2.7,74.2c-0.1,3.3,1.3,4.6,4.6,4.6
	c6.6-0.1,13.1-0.2,19.7,0c4,0.1,5.3-1.4,5.3-5.4C310.8,260.2,311,248.2,311,236.3z"/>
<path d="M27.2,419.4c0-5.2,0-9.7,0-14.1c0-23.8,0-47.6,0-71.5c0-2.3-0.5-4.7,2.9-5.6c1-0.3,1.6-3.2,1.7-4.9c0.2-6,0.3-6.4,6.1-6.3
	c4.1,0.1,8,0.4,7.3-5.7c-0.1-0.7,2.1-2.4,3.3-2.4c8.3-0.2,16.6-0.3,25,0c1.3,0.1,3.6,2.3,3.6,3.6c0.1,3.5,1.7,4.5,4.7,4.5
	c1.6,0,3.2,0,4.8,0c3.1-0.1,4.4,1.4,4.3,4.4c-0.1,3.4-1.1,7.2,4.1,8.2c0.6,0.1,1.1,2.8,1.1,4.3c0.1,16.1,0,32.3,0,48.4
	c0,1.9,0.3,3.8,0.5,5.8c0.4,0,0.8,0.1,1.3,0.1c1.7-4,3.3-8.1,5-12.1c9.1-22.3,18.2-44.7,27.5-66.9c1.8-4.2,0.6-5.1-3.3-5
	c-12.6,0.1-25.3-0.1-37.9,0.1c-4.2,0.1-5.4-1.3-5.4-5.5c0.2-19.2-0.1-38.4,0.3-57.5c0.1-4.6,1.9-9.3,3.6-13.8c0.4-1,3.3-1.4,5-1.6
	c2.5-0.2,4.1-0.6,4.9-3.5c0.4-1.4,2.7-3,4.3-3.1c5.1-0.4,10.2-0.3,15.4,0c1.4,0.1,3.6,1.5,3.8,2.5c0.5,3.8,2.8,4.3,5.8,4.1
	c3.4-0.3,5.2,1,4.7,4.7c-0.1,1,0.2,2.7,0.8,3.1c4,2.2,3.2,5.8,3.2,9.3c0,15-0.1,30,0,45c0,1.4,0.4,2.9,0.7,4.3
	c0.4,0,0.8,0.1,1.2,0.1c1.8-4.5,3.6-9,5.5-13.5c7.9-19.4,15.8-38.8,23.9-58.1c1.5-3.7,0.8-5-3.1-5c-7.8,0.1-15.7-0.1-23.5,0.1
	c-3.6,0.1-4.7-1.1-4.7-4.7c0.2-15.2-0.1-30.4,0.2-45.5c0.1-3.9,0.8-8.9,3.3-11.4c3.3-3.3,8.4-5.3,13.1-6.8c3-1,6.7-0.1,10-0.2
	c2.7-0.1,5.2-0.2,5.8,3.4c0.1,0.5,0.8,1.4,1.1,1.4c5.5-0.6,7.7,2.8,8.9,7.4c0.6,2.2,1.7,4.4,1.8,6.6c0.2,6.1,0.1,12.2,0.1,18.3
	c0.6,0.1,1.1,0.2,1.7,0.2c1.7-4.2,3.4-8.3,5.1-12.5c6.7-16.3,13.3-32.5,19.9-48.8c1.8-4.5,12.6-7.7,16.3-4.6
	c0.9,0.7,0.9,3.3,0.4,4.7c-4.9,14.9-9.9,29.7-14.9,44.6c-8.8,26.4-17.6,52.7-26.4,79.1c-13.5,40.4-27,80.9-40.6,121.3
	c-10.1,30.3-20.2,60.6-30.3,90.9c-2.1,6.4-4.3,12.7-6.3,19.1c-1,3.2-2.9,4.6-6.4,4.5c-11.4-0.1-22.7-0.2-34.1,0
	c-4.2,0-4.5-1.5-3.1-5c7.3-17.6,14.4-35.2,21.6-52.8c2.1-5,1.9-5.5-3.5-5.5c-15.4,0-30.7,0-46.1,0C31.4,419.4,29.6,419.4,27.2,419.4
	z M78.6,358.2c-6.5,0-6.6,0.3-7,5.9c-0.3,4.9,2,5.7,6.2,5.8c4.7,0.1,6-1.7,6-6.1C83.8,359.6,82.7,357.3,78.6,358.2z M83.6,399.7
	c0.8-4.2-0.5-6.5-5.2-6.2c-3.4,0.2-6.8-0.3-6.7,5c0.1,3.9,0.2,6.9,5.5,6.6C80.9,404.9,84.6,405.3,83.6,399.7z M78.3,375.8
	c-6.2,0-6.3,0.4-6.6,6.4c-0.3,5.1,2.6,5.1,6.3,5.3c4.9,0.3,5.9-1.9,5.9-6.2C83.9,376.7,82,375.2,78.3,375.8z M83.7,346.9
	c0-6.2-0.3-6.4-5.8-6.4c-6,0-5.9,0.2-6.2,6.2c-0.2,4.3,1.6,5.6,5.7,5.5C81.2,352,84.6,351.8,83.7,346.9z M50.4,382.2
	c0.5-3.9-0.1-6.5-5-6.5c-4.1,0-6.8,0.5-6.4,5.6c0.2,3.5-0.1,6.7,5.1,6.4C47.9,387.4,51.3,387.4,50.4,382.2z M50.5,363.9
	c0-5.5-0.4-5.5-6.5-5.9c-4.8-0.3-5,2.5-5,5.9c0,3.5,0.3,6.2,5.1,5.9C50,369.5,50.4,369.4,50.5,363.9z M44.5,340.6
	c-4-0.9-5.7,0.7-5.6,5c0.1,4,0.4,6.7,5.6,6.5c4.1-0.2,6.1-1,6.1-5.7C50.6,342,49.4,339.7,44.5,340.6z M44.5,405
	c4,0.5,6.2-0.5,6.1-5.3c-0.1-4.4-1.3-6.2-6-6.3c-5-0.1-5.7,2.1-5.8,6.3C38.8,404.1,40.4,405.6,44.5,405z M101.2,288.1
	c0.4-3-1.4-3.9-4.3-3.9c-2.9,0-4.5,1.1-4.4,4.2c0.1,3,1.2,4.8,4.5,4.8C100.5,293.3,101.3,291.3,101.2,288.1z M101.2,248
	c0.2-3-0.9-4.8-4.3-4.7c-3.2,0.1-4.5,1.7-4.4,4.8c0,3.2,1.6,4.4,4.7,4.4C100.4,252.4,101.5,250.9,101.2,248z M125.9,289
	c0.2-2.9-0.5-4.7-3.8-4.8c-3,0-4.9,0.7-4.8,4.2c0.1,2.7,0.8,4.6,3.9,4.8C124.4,293.4,126.1,292.2,125.9,289z M121.9,252.4
	c3.4,0.3,4.2-1.6,4.1-4.4c-0.1-3-1.1-4.8-4.5-4.7c-3.2,0.1-4.1,1.8-4.1,4.6C117.3,251.1,118.6,252.7,121.9,252.4z M126,261.3
	c0.3-3.2-1.4-4.2-4.3-4.2c-3,0-4.4,1.3-4.3,4.3c0.1,2.8,1.1,4.4,4.2,4.5C125,266,126.1,264.3,126,261.3z M101.2,275.4
	c0.1-2.8-0.5-4.8-3.8-4.8c-3,0-4.8,1-4.9,4.3c0,3.2,1.2,4.6,4.5,4.6C100,279.5,101.5,278.4,101.2,275.4z M121.9,279.4
	c2.9,0.5,4.2-1.1,4.1-4.1c0-2.7-0.5-4.7-3.9-4.7c-3.2,0-4.7,1.2-4.7,4.5C117.4,278,118.5,279.7,121.9,279.4z M101.2,261.4
	c0.3-2.7-0.6-4.3-3.9-4.3c-2.9,0-4.9,0.7-4.9,4.2c0,3.1,1.4,4.6,4.6,4.6C100.1,265.9,101.4,264.5,101.2,261.4z M146.2,186.7
	c2-2.5,3.9-3.8,4-5.2c0.1-1.1-2.2-3.3-3.3-3.2c-1.5,0.2-3.4,1.8-3.9,3.2C142.6,182.4,144.5,184.1,146.2,186.7z M147.2,186.8
	c-2.2,2.7-4.2,4.1-4.1,5.3c0.1,1.3,2.1,3.2,3.5,3.4c1,0.2,3.4-1.7,3.5-2.9C150.3,191.3,148.7,189.7,147.2,186.8z M146.2,208.5
	c2-2.4,4.1-3.9,3.9-4.9c-0.3-1.5-2.1-3.3-3.5-3.6c-1-0.2-3.5,1.7-3.6,2.9C142.9,204.3,144.6,205.8,146.2,208.5z M167.5,175.8
	c2.1-2.7,4.1-4,4.1-5.4c0-1.2-2.2-3.5-3.2-3.4c-1.4,0.1-3.3,1.9-3.8,3.4C164.2,171.3,165.9,173,167.5,175.8z M145.8,174.5
	c0.6,0,1.3,0,1.9-0.1c0.9-1.5,2.5-3,2.4-4.4c-0.1-1.2-2.4-3.3-3.4-3.1c-1.5,0.3-3.4,2.1-3.7,3.5
	C142.8,171.6,144.8,173.2,145.8,174.5z M167.4,208.5c2.2-2.5,4.1-3.8,4.2-5.3c0.1-1-2.3-3.1-3.6-3.1c-1.3,0-3.3,1.7-3.6,3.1
	C164.1,204.3,165.8,205.9,167.4,208.5z M168.3,176.4c-1.9,2.2-3.9,3.5-3.8,4.6c0.1,1.3,2.1,3.6,3.1,3.5c1.5-0.2,3.4-1.8,4.1-3.2
	C172,180.6,170,178.8,168.3,176.4z M168.2,197.5c1.7-2.5,3.6-4.1,3.3-5c-0.4-1.5-2.4-2.5-3.7-3.7c-1.2,1.3-3.1,2.5-3.3,3.9
	C164.4,193.8,166.3,195.2,168.2,197.5z"/>
<path d="M410.4,178.5c0.2-1.8,0.4-3.7,0.4-5.5c0-6.9-0.4-13.8,0.1-20.6c0.4-5.7,1.8-11.4,2.7-17.1c0.1-0.3,0.2-0.9,0.3-0.9
	c6,0.5,7.6-7.6,13.7-6.9c2.7,0.3,5.4,0.1,8.2,0c2.5-0.1,4.9,0,5.5,3.2c0.1,0.7,0.9,1.6,1.5,1.7c10,2,9.6,10,9.7,17.3
	c0.2,14.5,0,29.1,0.1,43.6c0,3.7-1.1,5.1-4.9,5c-8.2-0.2-16.3-0.1-24.5,0c-1.7,0-3.4,0.3-5.9,0.5c30.2,73.7,60.1,146.5,90,219.4
	c0.4,0,0.7,0,1.1,0c0.2-1.7,0.7-3.5,0.7-5.2c0-14-0.1-28.1,0-42.1c0-1.9,1.7-3.7,2.4-5.5c0.7-1.6,1.7-3.4,1.6-5.1
	c-0.2-3.8,1.3-5.4,5-5.1c4.2,0.3,8.3,0.6,8-5.7c0-0.7,2.1-2,3.2-2c7.5-0.2,15.1-0.3,22.6,0c1.3,0.1,3.4,2.1,3.5,3.2
	c0.2,3.6,1.7,4.6,5.2,4.5c6.7-0.2,6.5,0,7.6,6.8c0.3,1.8,2.5,3.3,4.6,6c0,25.7,0,52.8,0,80.4c-2.1,0.1-3.9,0.3-5.8,0.3
	c-13.8,0-27.5,0-41.3,0c-5.4,0-5.7,0.6-3.6,5.4c3.2,7.5,6.3,15,9.3,22.6c2.1,5.1,1.7,5.6-4,5.7c-10.9,0-21.8-0.1-32.6,0.1
	c-3.6,0.1-5.6-1.3-6.7-4.7c-6.1-18.5-12.3-37-18.5-55.5c-13.6-40.8-27.2-81.5-40.8-122.3c-13.4-40.2-26.8-80.3-40.3-120.5
	c-6.2-18.6-12.5-37.2-18.8-55.9c-1.7-5-1-6,4.2-6c1.6,0,3.2,0.2,4.8,0c4-0.5,6.1,1.4,7.6,5c7.1,17.8,14.4,35.6,21.6,53.3
	c0.3,0.8,0.8,1.6,1.3,2.4C409.5,178.6,409.9,178.5,410.4,178.5z M556,387.2c4.7,0.9,5.4-1.8,5.4-5.6c0-3.6-1.1-5.3-5-5.2
	c-3.7,0.1-6.1,0.6-5.8,5.3C550.8,385.7,551.5,388.1,556,387.2z M525.2,387.3c3.8,0.4,5.8-0.7,5.9-5.1c0.1-4.3-1.6-5.6-5.5-5.6
	c-3.4,0-5.8,0.6-5.7,4.9C519.9,385.3,520.6,387.9,525.2,387.3z M525.2,435.8c3.9,0.4,5.9-0.8,5.9-5.2c0-4.2-1.5-5.6-5.6-5.5
	c-3.6,0.1-5.7,1-5.7,5.1C519.8,434,520.8,436.4,525.2,435.8z M561.3,398.2c0.4-3.7-0.6-5.7-4.9-5.6c-3.9,0.1-6,0.9-5.8,5.3
	c0.1,3.5,0.6,5.8,5,5.6C559.4,403.3,562,402.7,561.3,398.2z M525.8,403.3c3.9,0.6,5.2-1.4,5.3-5.4c0-4.5-2.2-5.1-5.9-5.2
	c-4.3-0.1-5.3,2-5.3,5.8C519.7,402.8,522.1,403.5,525.8,403.3z M556,419.5c4.6,0.8,5.3-1.7,5.4-5.6c0.1-4.5-2.3-4.7-5.8-4.9
	c-4.2-0.2-5.1,1.7-5.1,5.5C550.6,418.6,552.1,420.2,556,419.5z M555.7,435.8c3.7,0.5,5.9-0.6,5.7-4.8c-0.1-3.4-0.4-6-4.9-5.9
	c-3.4,0.1-6,0.3-5.9,4.8C550.7,433.4,550.9,436.5,555.7,435.8z M525.7,409.2c-3.6-0.2-5.9,0.4-5.9,4.8c0,4.1,1.4,5.7,5.6,5.6
	c4,0,5.7-1.2,5.7-5.5C531.1,410,529.3,408.7,525.7,409.2z M440.8,157.2c2.2-2.6,4.1-3.9,4.2-5.3c0.1-1.2-1.9-3.7-2.9-3.7
	c-1.5,0.1-3.7,1.6-4.1,3C437.6,152.3,439.3,154.1,440.8,157.2z M441.4,169.1c-1.8,2.5-3.7,4.1-3.4,5.1c0.4,1.5,2.3,2.7,3.5,4
	c1.2-1.3,3.2-2.5,3.5-4C445.2,173.1,443.3,171.5,441.4,169.1z M440.4,167.1c0.7,0,1.3,0,2,0c0.9-1.4,2.7-3,2.5-4.2
	c-0.3-1.4-2.3-3.1-3.7-3.3c-0.9-0.2-3.1,2-3.2,3.3C437.9,164.2,439.6,165.7,440.4,167.1z M425.8,152.4c0-0.6-0.1-1.3-0.1-1.9
	c-1.6-0.9-3.2-2.4-4.7-2.3c-1.1,0.1-2.9,2.4-2.9,3.6c0,1.2,2.1,3.2,3.2,3.2C422.9,155,424.3,153.3,425.8,152.4z M442,181.3
	c-0.6,0-1.3,0.1-1.9,0.1c-0.8,1.6-2.3,3.3-2.1,4.7c0.2,1.2,2.5,2.9,3.7,2.8c1.2-0.1,3.2-2.2,3.2-3.4
	C444.9,184.1,443.1,182.7,442,181.3z M415.9,162.8c2.6,1.9,4,3.7,5,3.5c1.5-0.3,2.8-2.1,4.2-3.2c-1.3-1.2-2.4-3.1-3.9-3.5
	C420.2,159.3,418.7,161,415.9,162.8z M421.6,180c1.8-2.9,3.4-4.5,3.4-5.9c0-1.1-2.5-3.1-3.5-2.9c-1.4,0.3-3,2.2-3.3,3.6
	C418,175.9,419.8,177.3,421.6,180z M416,185.1c2.4,2,3.8,4,4.8,3.9c1.6-0.2,2.9-1.9,4.3-3c-1.2-1.3-2.2-3.2-3.7-3.7
	C420.5,181.9,418.8,183.5,416,185.1z"/>
</svg>
