<?xml version="1.0" encoding="utf-8"?>
<!-- Generator: Adobe Illustrator 26.5.0, SVG Export Plug-In . SVG Version: 6.00 Build 0)  -->
<svg version="1.1" id="Layer_1" xmlns="http://www.w3.org/2000/svg" xmlns:xlink="http://www.w3.org/1999/xlink" x="0px" y="0px"
	 viewBox="0 0 600 600" style="enable-background:new 0 0 600 600;" xml:space="preserve">
<g>
	<path d="M188.4,373.1c0.2-61.2,50.5-111.6,111.3-111.6c61.7,0.1,112.3,50.3,112.2,111.2c-0.2,61.9-50.5,112.4-111.9,112.2
		C238.3,484.6,188.2,434.4,188.4,373.1z M282.3,401c1.3-1.2,1.5-1.7,1.8-1.7c1.9-0.2,3.8-0.4,5.7-0.4c16.1-0.6,28.8-7.8,35.3-22.3
		c3.9-8.8,7.8-13.8,17.9-12.2c4.1,0.6,7.2-2.4,7.3-6.6c0.1-4.6-3.1-7.8-7.4-7.1c-10.4,1.7-15.4-3.2-18.7-12.3c-2-5.4-2.1-6.3,4-6.3
		c5.4-0.1,11,0.5,16.2-0.6c2.4-0.5,5.6-4.3,5.6-6.6c0-2.3-3.5-4.7-5.7-6.7c-0.8-0.7-2.6-0.4-4-0.4c-24.4,0-48.8,0-73.2,0
		c-6.1,0-9.5,2.6-9.7,6.9c-0.2,4.5,3.7,7.5,9.8,7.5c7,0,13.9-0.1,20.9-0.1c9.8,0.1,17.6,4,23.2,12.1c2.7,4,1.6,6.1-3.2,6.2
		c-8.3,0.1-16.6,0-25,0c-5.6,0-11.2,0-16.8,0c-4.7,0-8.5,1.6-9,7c-0.4,4.3,3.3,7.1,9.3,7.3c1,0,1.9,0,2.9,0
		c12.8,0,25.6-0.1,38.3,0.1c1.9,0,3.8,1.1,5.7,1.7c-0.6,2-0.8,4.2-1.9,5.8c-5.5,8.4-13.6,12.4-23.6,12.5c-7.9,0-15.9-0.4-23.8,0.2
		c-2.6,0.2-6,2.4-7.1,4.6c-0.9,1.9,0.1,5.9,1.7,7.6c13.4,14.8,27,29.3,40.7,43.8c3.1,3.3,6.8,3.7,10.3,0.6c3.6-3.2,3.1-6.9,0.2-10.3
		c-3.3-3.8-6.8-7.4-10.2-11.1C294.2,413.8,288.3,407.5,282.3,401z"/>
	<path d="M466.7,488.8c1.9-8.2,9.5-15.3,3-25.1c-2.2-3.3-3.2-8,0.7-10.5c2.9-1.8,7.4-2.4,10.8-1.6c5.3,1.1,6.9,6.5,3.2,12.2
		c-5.8,9-0.3,16.1,2.7,23.8c0.2,0.4,1,0.5,2.2,1.1c0.7-1.5,1.5-2.9,2-4.5c3-9.4,6-18.8,8.8-28.2c1.3-4.1,3.4-5.4,7.3-3.1
		c9.1,5.4,18.2,11,27.4,16.2c8.5,4.8,12.1,12.1,12.4,21.5c0.3,11.6,0.4,23.2,0.7,34.8c0.2,4.8-2,6.4-6.6,6.4
		c-42.8-0.1-85.5-0.1-128.3,0c-4.2,0-6.6-1.3-6.5-6c0.2-12,0.5-24,0.4-36c-0.1-9.1,4.3-15.7,11.4-20.3c9.4-6.1,19.3-11.4,29.1-16.9
		c3.8-2.2,5.2,0.4,6.2,3.5c2.9,9.2,5.8,18.5,8.7,27.7c0.6,1.7,1.3,3.4,2,5.1C465.2,488.9,466,488.9,466.7,488.8z"/>
	<path d="M112.5,488c2.6-7.7,8.6-14.5,2.9-23.9c-4.5-7.5,0-14,8.2-13.3c7.2,0.6,10.7,6.5,6.5,12.9c-5.9,8.9-0.2,15.8,2.2,23.3
		c0.2,0.5,1.2,0.8,2.9,1.8c1.4-3.7,2.7-7,3.8-10.4c2.4-7.4,4.7-14.7,7-22.1c1.2-3.9,3.6-5.1,7-3c10.2,6,20.4,11.9,30.2,18.3
		c5.9,3.9,9.3,9.9,9.5,17.1c0.4,12.8,0.5,25.5,0.7,38.3c0,3.4-1.7,5-5,4.9c-1.5,0-3.1,0-4.6,0c-41.4,0-82.8-0.1-124.3,0.1
		c-5.5,0-7.6-1.5-7.4-7.3c0.4-10.6,0.3-21.3,0.2-31.9c-0.1-10.4,4.1-18.4,12.9-23.8c8.8-5.3,17.8-10.2,26.6-15.4
		c4.5-2.7,6.7-0.9,8.1,3.6c2.6,8.5,5.4,17,8.1,25.4c0.6,1.9,1.6,3.7,2.4,5.5C111.1,488.1,111.8,488.1,112.5,488z"/>
	<path d="M89.1,392.4c1-5.2,1.2-12.6,3.8-19c5.7-14,18.9-20.2,35.3-17.9c14.9,2.1,25.4,11.9,26.6,27c0.9,10.5,1.2,21.5-1.2,31.7
		c-5.2,22.2-20.5,29.5-41,24.9C100,436.2,94,425.9,91.4,414C90,407.6,89.9,401,89.1,392.4z"/>
	<path d="M442.6,394.7c1.1-11.7,2.3-22.8,11.4-31.2c10-9.3,21.9-10,34.2-6.7c11.8,3.1,18.4,11.5,20.6,23.4
		c2.6,13.9,2.4,27.8-3.1,41.1c-4.6,11-12.7,20.4-32.2,19c-11.5-0.8-21.1-7-25.3-19.7C445.4,412.2,444.4,403.3,442.6,394.7z"/>
	<g>
		<path d="M300,226.4c-16.7-0.1-33.3-1-49.6-4.5c-6.8-1.5-13.6-3.4-19.7-7.1c-7.9-4.8-10.6-11.8-7.9-20.9
			c2.4-7.9,5.5-15.5,10.8-21.9c4.4-5.3,9.9-9,16.7-10c2.5-0.4,3.6-2,4.6-4c2.3-4.8,2.9-10,3.2-15.2c0.6-11.1-0.7-22-1.9-33
			c-0.5-4.7,0-9.5,0.4-14.2c0.8-9.1,2.8-17.9,7.2-25.9c7.5-13.6,18.8-20.2,34-19.6c4,0.2,8-0.2,11.9,0.4c13,1.9,21.9,9.6,27.6,21.5
			c4.2,8.7,5.6,18.1,6.5,27.7c0.7,7.3-0.7,14.3-1.4,21.5c-0.9,10.3-1.6,20.7,0.6,31c0.3,1.5,0.8,3,1.4,4.5c1.1,3,2.8,4.9,6.2,5.5
			c9.6,1.8,16,8.4,20.3,16.9c2.6,5.2,4.7,10.7,6.4,16.2c2.3,7.6-0.6,14.6-7.3,18.8c-6.3,4-13.3,6-20.5,7.6
			C333.2,225.5,316.6,226.3,300,226.4z M334,105.8c-1.1,1.1-1.9,1.7-2.5,2.5c-1,1.3-1.9,1.2-3.3,0.5c-13.7-7.4-27.5-14.7-41.3-21.9
			c-1.2-0.6-2.8-0.9-4.2-0.9c-3.9,0.1-7.1,2-9.2,5.3c-1.8,2.8-3,6.1-4.3,9.2c-0.7,1.8-0.9,3.8-1.3,5.7c-2.2-0.2-2.9,0.3-3.3,2.6
			c-0.8,4.2-0.1,8.1,1.9,11.9c0.8,1.6,1.9,2.8,3.8,2.2c0.2,0.5,0.3,0.8,0.4,1.1c3.1,9,7.7,17,15,23.1c9.1,7.6,19.1,7.9,28.2,0.3
			c3-2.5,5.8-5.5,8-8.7c3.2-4.9,5.7-10.3,8.5-15.6c1.6,0.1,2.8-0.7,3.9-3.9C335.9,114.8,336.9,110.4,334,105.8z M321.3,150.2
			c-14.2,13.6-28.3,13.6-42.4,0c-0.5,5.1-3.9,7.5-8.3,9.5c1.4,1.9,2.4,3.7,3.8,5.2c7.5,7.7,15,15.3,22.5,22.9c1,1,2,2,3.1,3
			c1.2-1.2,2.3-2.2,3.3-3.3c7.7-7.9,15.5-15.8,23.1-23.7c1.1-1.2,1.8-2.8,2.8-4.3C325,157.6,321.9,155.3,321.3,150.2z"/>
	</g>
	<path d="M370.9,231.1H229.1c-4,0-7.3-3.3-7.3-7.3v-22.5c0-4,3.3-7.3,7.3-7.3h141.8c4,0,7.3,3.3,7.3,7.3v22.5
		C378.2,227.8,374.9,231.1,370.9,231.1z"/>
</g>
</svg>
