<?xml version="1.0" encoding="utf-8"?>
<!-- Generator: Adobe Illustrator 26.5.0, SVG Export Plug-In . SVG Version: 6.00 Build 0)  -->
<svg version="1.1" id="Layer_1" xmlns="http://www.w3.org/2000/svg" xmlns:xlink="http://www.w3.org/1999/xlink" x="0px" y="0px"
	 viewBox="0 0 600 600" style="enable-background:new 0 0 600 600;" xml:space="preserve">
<g>
	<path d="M158.9,510.3c5.8-6.9,14.6-7.9,22.6-4.6c5.3,2.2,10.6,4.5,16.1,5.9c8.4,2.2,16.5,0.3,24-3.6c3.7-1.9,6.8-4.9,4.5-9.5
		c-2.2-4.3-6.2-5.4-10.6-3.1c-7.6,4-15.2,3.9-22.7-0.1c-15.7-8.3-30.7-7.7-44.8,3.4c-2.8,2.2-5.1,1.9-7.8-0.4
		c-9.3-7.9-11.1-17.9-4.5-28.4c7.1-11.2,17.7-18.4,29-24.7c4-2.2,8.3-3.7,12.2-6c1.9-1.1,3.2-3.2,4.8-4.9c-2.2-0.9-4.4-2.5-6.6-2.5
		c-16.6-0.2-33.2,0-49.7,0.1c-1.9,0-3.8,0-5.7,0c-0.2-0.5-0.5-1-0.7-1.5c1.5-1.2,2.7-2.7,4.4-3.5c39.4-18.7,80.8-30.2,124.1-35.2
		c5.8-0.7,8.3-7.1,5.2-13.6c-3.1-6.6-2.6-7.3,4.8-7.6c1.7-0.1,3.4-1.2,5.1-1.9c-0.9-1.3-1.7-2.9-2.9-3.7c-3.7-2.6-3.2-4.6,0.6-6.4
		c3.1-1.4,3.2-2.9,0.8-5.3c-1.4-1.4-2.3-3.4-3.4-5.1c2.9-1.3,5.9-3.6,8.8-3.6c7.8,0,15.5,1.1,23.3,1.7c3.4,0.2,5-1.4,5-5
		c-0.1-10.8,0.2-21.7-0.2-32.5c-0.1-2.2-1.5-5-3.2-6.5c-11.9-10.1-23.9-20.1-36.1-29.6c-2.3-1.8-6.2-2.7-9.1-2.3
		c-33.3,5.3-63.6-24.6-58.5-57.8c1.8-11.7,6.6-21.7,14.6-30.4c1.9-2.1,3.3-5.6,3.2-8.3c-1-22.3,4.7-42.4,17.2-60.9
		c1.5-2.2,1.8-5.5,1.9-8.4c0.4-14.4,6.8-26.1,20-30.7c8.5-3,18.9-0.7,28.4-0.7c2.3,0,4.7,1.1,6.8,0.7c43.3-8.2,79.3,5.4,103.4,39.6
		c17.8,25.3,20.9,53.3,13.1,83c-0.8,3-0.4,7.1,1,9.8c10.7,20.5,2.6,43.2-19.1,51.5c-3.9,1.5-8.4,2-12.7,2c-4.4,0-7.5,1.4-10.2,4.8
		c-13.7,17.3-27.7,34.4-41.1,51.9c-2.1,2.8-2.4,7.2-3.1,10.9c-0.4,2.3-0.1,4.7-0.1,7.1c0,11.7,4.5,14.4,16,11.3
		c4.1-1.1,8.9,0.6,13.4,1.3c0.7,0.1,1.6,1.9,1.5,2.8c-0.1,0.9-1.1,2-2,2.5c-1,0.5-2.4,0.1-3.4,0.6c-1.3,0.6-2.3,1.7-3.4,2.7
		c1.1,0.9,2.1,1.9,3.3,2.6c0.6,0.4,1.7-0.1,2.3,0.3c1.3,0.9,2.3,2.2,3.4,3.3c-1.1,1-2,2.2-3.2,2.8c-1,0.5-2.5,0.1-3.4,0.6
		c-1,0.6-1.9,1.8-2.1,2.9c-0.1,0.5,1.5,1.9,2.4,2c3.1,0.3,6.3,0,9.5,0.2c4.1,0.2,4.7,2.2,3.4,6c-1.3,3.9-2,8.2-1.9,12.3
		c0.1,1.5,3.1,3.7,5.1,4.2c23.4,5.6,47.1,10,70.1,16.6c15.5,4.4,30.1,11.7,45.1,17.8c1.3,0.5,2.3,1.8,3.4,2.7
		c-0.1,0.5-0.3,1.1-0.4,1.6c-51.6,0-103.3,0-154.9,0c-0.1,0.7-0.3,1.3-0.4,2c1.6,0.7,3.1,1.5,4.8,2.1c18.1,6.3,36.9,5.5,55.7,4.9
		c1.3,0,3.3-1,3.8-2c1.9-4.4,5-4.2,8.8-3.2c3,0.8,6.3,0.7,9.3,1.5c1.8,0.5,4.5,1.6,4.7,2.8c0.8,5.2,4.8,5.6,8.5,6.9
		c16.1,5.4,30.8,13.1,42.7,25.5c14.2,14.8,12.9,28.4-4.6,39.3c-17.4,10.8-37,14.7-57,16.2c-26.9,2-53.6,0.9-79.6-8.1
		c-3.1-1.1-7-0.6-10.4,0c-36.1,6.3-72.3,6.4-108.3-0.4C181.8,517,171,513.5,158.9,510.3z M398.8,492.4c6.4-1.9,12.1-3.2,17.5-5.2
		c4.4-1.6,6.9-5.2,4.7-9.9c-2.1-4.5-6.1-5.1-10.5-2.8c-7.8,4.1-15.7,3.8-23.2-0.4c-19.4-10.8-35.7-3.9-51,8.6
		c-3.3,2.6-4.2,6.5-1.3,9.3c1.9,1.8,6,2.4,8.7,1.8c3.3-0.8,6.1-3.4,9-5.5c8.3-6,16.8-6.6,26.2-2.5
		C385.3,488.5,392.2,490.2,398.8,492.4z M293.7,466.1c5.7-1.8,11.3-3.3,16.7-5.6c4-1.7,6.4-5,4.2-9.5c-2.1-4.6-6.1-5-10-3
		c-8.6,4.4-16.6,3.3-24.9-0.7c-22.9-11.1-35-2.1-50.1,9.7c-1.6,1.3-2.1,5.9-1.2,8.1c1.5,3.6,5.3,4.6,9,2.5c2.2-1.2,4.4-2.6,6.4-4.2
		c10.3-8.3,20.9-8.4,32.5-2.5C281.5,463.5,287.5,464.3,293.7,466.1z M279.8,377.4c-3.2,0-6.3,0-9.5,0c-5.9-0.1-4.3,4.3-4.5,7.6
		c-0.2,3.8,1.3,4.9,5.3,4.8c18.3-0.1,36.7,0.4,55,0.5c2.3,0,6.2-0.4,6.7-1.6c1.1-2.7,1.1-6.3,0.4-9.1c-0.3-1.2-3.9-2.1-6-2
		c-5.3,0.3-10.7,0.8-15.6,2.5c-1.4,0.5-0.9,5.7-5.2,5.4c-2.9-0.2-6,0.2-8.8-0.3c-1.1-0.2-2.8-2-2.8-3.1c-0.2-4.2-2.8-4.7-6.1-4.6
		C285.8,377.4,282.8,377.4,279.8,377.4z M292.9,291c0.6-0.3,1.2-0.6,1.8-0.9c0-7.2,0.1-14.3-0.1-21.5c0-1.1-1.7-2.8-2.9-3.1
		c-6.4-1.7-12.9-3.6-19.5-4.3c-2.5-0.3-5.3,2.5-8,3.9c1.3,1.9,2.2,4.2,3.9,5.7c5.6,4.9,11.5,9.5,17.3,14.2
		C287.7,287,290.3,289,292.9,291z M349.8,256.9c-2.8-0.6-3.4-1-3.9-0.8c-10.4,3-20.8,5.9-31.1,9.2c-1.5,0.5-3.6,2.5-3.6,3.9
		c-0.3,10.7-0.2,21.5-0.2,32.2c0.8,0.4,1.5,0.7,2.3,1.1C325.1,287.6,337.1,272.7,349.8,256.9z M281.3,352.9
		C281.3,352.9,281.3,352.9,281.3,352.9c-3.1-0.1-6.3-0.4-9.4,0.1c-1.3,0.2-2.5,1.9-3.7,2.9c1.1,0.9,2.3,2.4,3.4,2.5
		c6.5,0.2,13,0.2,19.4,0c1.2,0,2.3-1.6,3.4-2.5c-1.3-1-2.4-2.6-3.8-2.8C287.6,352.7,284.4,352.9,281.3,352.9z M280.6,370.5
		C280.6,370.5,280.6,370.5,280.6,370.5c3.4,0,6.7,0.2,10.1-0.1c1.2-0.1,2.4-1.5,3.5-2.3c-1-1-2-2.8-3.1-2.8
		c-6.7-0.3-13.4-0.3-20.1-0.1c-1,0-1.9,1.5-2.9,2.4c1,1,1.9,2.7,3,2.8C274.3,370.7,277.5,370.5,280.6,370.5z M319.1,359.7
		c0.2-0.4,0.4-0.8,0.6-1.2c0.8,0,1.7,0.2,2.3,0c2-0.8,3.8-1.7,5.7-2.6c-1.8-1-3.6-2.1-5.5-2.9c-0.6-0.3-1.6-0.2-2.3,0
		c-2.9,0.8-5.8,1.7-8.7,2.6C313.9,357,316.5,358.3,319.1,359.7z M319.3,363.7c-2.8,1.6-5.4,3-7.9,4.4c2.7,0.8,5.4,2.3,8.1,2.4
		c2.8,0,7.3,2.1,7.9-2.8C327.5,366.7,322.7,365.2,319.3,363.7z"/>
	<path d="M380.8,366.5c0-6.9,0.4-13.8-0.2-20.7c-0.3-3.1-1.8-6.9-4.1-9c-6.2-5.8-12.8-11.1-19.7-16.1c-2.2-1.6-5.6-1.7-8.5-2
		c-7.8-0.7-15.6-0.7-23.3-1.6c-3.9-0.4-4.1-2.9-1.7-5.9c11.4-14.1,22.6-28.4,34.3-42.2c1.9-2.3,5.9-3.9,9-4.1
		c31.1-2,48.7-32.6,34.7-60.5c-1.1-2.2-1.1-5.3-0.7-7.9c1-8.2,2.3-16.3,3.9-24.4c0.4-1.8,2-3.8,3.6-5c1.8-1.4,4.3-1.9,6.4-2.9
		c9.5-4.4,18.5-3.5,26.8,2.7c8.6,6.4,11.8,15.2,9.6,25.6c-1,4.4-0.6,7.8,1.6,11.7c4.4,7.6,13.3,18.7,20.6,24.5
		c19,15.2,24.3,38.7,13.7,60.5c-9.8,20-33.2,30.5-56.1,24.7c-4.3-1.1-7-0.4-9.7,3.1c-8.1,10.4-16.6,20.5-24.6,31
		c-1.8,2.3-2.9,5.6-3,8.5c-0.3,11,0,22-0.1,33.1c0,2.8,1.6,6.9-3.8,6.8c-5,0-8.6-3.1-8.6-7.5C380.7,381.4,380.7,373.9,380.8,366.5
		C380.7,366.5,380.8,366.5,380.8,366.5z M393.9,337.1c1.6-0.5,2.3-0.5,2.6-0.8c6.6-8.1,13.1-16.2,19.5-24.5c0.6-0.8,0.5-3.1-0.2-4
		c-1.7-2.1-21.6,2.1-21.8,4.8C393.6,320.5,393.9,328.6,393.9,337.1z M361.7,315c5.2,4.4,10,8.7,15,12.7c2.4,1.9,4.1,0.7,4.1-2.3
		c0.1-3.7,0.2-7.5-0.2-11.1c-0.1-1.3-1.3-2.9-2.5-3.5C371.9,307.3,367.2,308.4,361.7,315z"/>
	<path d="M200.3,374.2c0,5.5-0.2,11,0.1,16.5c0.3,6-3.9,6.8-8.1,7c-4.9,0.2-3.8-3.8-3.5-6.4c2.8-19.2-2.3-35.6-17-48.6
		c-0.9-0.8-1.5-1.8-2.2-2.8c-5.4-8.5-12.1-13.1-23.2-14.1c-17.6-1.5-29.4-12.9-35.4-29.2c-6.4-17.5-2.6-33.5,10-47
		c5.7-6.1,8.4-12.9,7.6-20.8c-2.4-23.7,19.9-42.4,41.2-38.8c4.9,0.8,10.4-1.6,15.6-2.4c1.6-0.2,3.3,0.2,5,0.4
		c-0.4,1.6-0.4,3.4-1.1,4.8c-10.2,19.3-9.5,38.6,2.3,56.6c12,18.4,29.7,27.2,51.9,25.5c5.1-0.4,9.1,0.5,12.9,3.9
		c6.8,6,13.9,11.7,21,17.3c3.4,2.6,3.9,5.4,2.4,9.3c-7.6,20-27.4,31.1-48.2,27.4c-2.9-0.5-6.7,0.4-9.1,2.1
		c-6.3,4.4-11.9,9.7-18,14.4c-3.3,2.5-4.7,5.4-4.4,9.6C200.5,364,200.2,369.1,200.3,374.2C200.2,374.2,200.3,374.2,200.3,374.2z
		 M186.6,350.4c0.6-0.2,1.3-0.4,1.9-0.7c0-7.4,0-14.7,0-22.1c0-0.7-0.6-1.5-1.1-2c-2.4-2.3-14.2-3.6-17-1.6c-1,0.8-2.1,3.4-1.7,4
		C174.5,335.6,180.6,343,186.6,350.4z M200.4,341.6c0.6,0.3,1.1,0.7,1.7,1c5-4.1,10.1-8.2,15-12.3c0.5-0.4,0.7-1.9,0.5-2.1
		c-2.4-1.7-5-4.6-7.5-4.6c-3.2,0-8.5,1.6-9.3,3.8C199.4,331.8,200.4,336.9,200.4,341.6z"/>
	<path d="M337.1,265.9c-6.5,8.2-13.1,16.3-19.6,24.5c-0.6-0.2-1.2-0.4-1.9-0.6c0-6.1-0.1-12.2,0.1-18.2c0-0.8,1.4-2,2.4-2.3
		c6-1.6,12-3.1,18-4.5C336.5,265.1,336.8,265.5,337.1,265.9z"/>
</g>
</svg>
