<?xml version="1.0" encoding="UTF-8"?>
<svg xmlns="http://www.w3.org/2000/svg" xmlns:xlink="http://www.w3.org/1999/xlink" width="100px" height="20px" viewBox="0 0 101 20" version="1.1">
<g id="surface1">
<path style=" stroke:none;fill-rule:nonzero;fill:rgb(8.627451%,41.568627%,54.901961%);fill-opacity:1;" d="M 22.398438 16.679688 L 18.195312 16.679688 L 33.492188 0.753906 L 40.492188 0.753906 L 40.492188 18.824219 L 33.492188 18.824219 L 33.492188 6.511719 L 35.589844 7.386719 L 24.527344 18.824219 L 16.125 18.824219 L 5.03125 7.417969 L 7.160156 6.539062 L 7.160156 18.824219 L 0.15625 18.824219 L 0.15625 0.753906 L 7.160156 0.753906 Z M 43.296875 18.824219 L 43.296875 0.753906 L 60.945312 0.753906 C 64.566406 0.753906 67.238281 1.109375 68.957031 1.824219 C 70.671875 2.539062 71.53125 3.78125 71.53125 5.550781 C 71.53125 6.683594 71.160156 7.546875 70.410156 8.148438 C 69.683594 8.753906 68.628906 9.175781 67.246094 9.421875 C 65.882812 9.648438 64.238281 9.789062 62.316406 9.84375 L 62.539062 9.617188 C 63.941406 9.617188 65.238281 9.65625 66.433594 9.730469 C 67.628906 9.808594 68.675781 9.976562 69.570312 10.238281 C 70.46875 10.503906 71.167969 10.910156 71.671875 11.453125 C 72.175781 12 72.429688 12.753906 72.429688 13.714844 C 72.429688 14.878906 72.019531 15.839844 71.195312 16.59375 C 70.375 17.347656 69.207031 17.910156 67.695312 18.289062 C 66.183594 18.644531 64.398438 18.824219 62.34375 18.824219 Z M 50.300781 13.515625 L 62.34375 13.515625 C 63.335938 13.515625 64.042969 13.421875 64.472656 13.234375 C 64.921875 13.046875 65.144531 12.742188 65.144531 12.328125 C 65.144531 12.046875 65.042969 11.820312 64.835938 11.652344 C 64.652344 11.484375 64.351562 11.359375 63.941406 11.285156 C 63.53125 11.191406 63 11.144531 62.34375 11.144531 L 50.300781 11.144531 Z M 50.300781 8.433594 L 61.167969 8.433594 C 62.15625 8.433594 62.867188 8.339844 63.296875 8.148438 C 63.746094 7.960938 63.96875 7.660156 63.96875 7.246094 C 63.96875 6.8125 63.746094 6.511719 63.296875 6.34375 C 62.867188 6.15625 62.15625 6.0625 61.167969 6.0625 L 50.300781 6.0625 Z M 73.121094 12.1875 L 80.765625 12.1875 C 80.898438 12.582031 81.28125 12.921875 81.914062 13.203125 C 82.550781 13.46875 83.398438 13.675781 84.464844 13.828125 C 85.546875 13.957031 86.796875 14.023438 88.21875 14.023438 C 89.617188 14.023438 90.71875 13.984375 91.523438 13.910156 C 92.34375 13.816406 92.921875 13.667969 93.257812 13.460938 C 93.59375 13.234375 93.761719 12.933594 93.761719 12.554688 C 93.761719 12.199219 93.492188 11.925781 92.949219 11.738281 C 92.410156 11.53125 91.449219 11.386719 90.066406 11.3125 C 88.683594 11.238281 86.742188 11.199219 84.238281 11.199219 C 82.371094 11.199219 80.757812 11.117188 79.394531 10.945312 C 78.050781 10.757812 76.9375 10.476562 76.058594 10.097656 C 75.203125 9.703125 74.566406 9.214844 74.15625 8.628906 C 73.746094 8.027344 73.539062 7.3125 73.539062 6.484375 C 73.539062 5.054688 74.015625 3.875 74.96875 2.953125 C 75.9375 2.011719 77.394531 1.316406 79.335938 0.863281 C 81.296875 0.394531 83.746094 0.160156 86.675781 0.160156 C 90.972656 0.160156 94.25 0.789062 96.507812 2.050781 C 98.785156 3.292969 99.925781 5.089844 99.925781 7.445312 L 92.671875 7.445312 C 92.578125 6.824219 92 6.351562 90.933594 6.03125 C 89.871094 5.695312 88.355469 5.523438 86.394531 5.523438 C 84.453125 5.523438 83.007812 5.636719 82.054688 5.863281 C 81.121094 6.089844 80.65625 6.476562 80.65625 7.019531 C 80.65625 7.304688 80.785156 7.527344 81.046875 7.699219 C 81.308594 7.867188 81.757812 8.007812 82.390625 8.121094 C 83.042969 8.214844 83.960938 8.28125 85.136719 8.320312 C 86.3125 8.359375 87.804688 8.375 89.617188 8.375 C 91.617188 8.375 93.316406 8.480469 94.714844 8.6875 C 96.117188 8.875 97.246094 9.167969 98.105469 9.5625 C 98.984375 9.957031 99.617188 10.464844 100.011719 11.085938 C 100.402344 11.691406 100.597656 12.40625 100.597656 13.234375 C 100.597656 14.664062 100.148438 15.832031 99.253906 16.734375 C 98.355469 17.636719 96.9375 18.308594 94.996094 18.738281 C 93.054688 19.171875 90.515625 19.390625 87.375 19.390625 C 85.601562 19.390625 83.96875 19.285156 82.476562 19.078125 C 81 18.871094 79.683594 18.570312 78.527344 18.175781 C 77.367188 17.761719 76.386719 17.261719 75.582031 16.679688 C 74.78125 16.074219 74.164062 15.40625 73.734375 14.671875 C 73.324219 13.921875 73.121094 13.09375 73.121094 12.1875 Z M 73.121094 12.1875 "/>
</g>
</svg>
