<?xml version="1.0" encoding="utf-8"?>
<!-- Generator: Adobe Illustrator 26.5.0, SVG Export Plug-In . SVG Version: 6.00 Build 0)  -->
<svg version="1.1" id="Layer_1" xmlns="http://www.w3.org/2000/svg" xmlns:xlink="http://www.w3.org/1999/xlink" x="0px" y="0px"
	 viewBox="0 0 600 600" style="enable-background:new 0 0 600 600;" xml:space="preserve">
<g>
	<path d="M171.8,324.4c-3.9,10.2-7.6,19.6-11,29.1c-18.9,51.9,2.7,123,64.4,146.2c48,18.1,94.1,13.2,134-21.5c8.8-7.6,15-18.4,22-28
		c2-2.7,3.3-4.1,6.9-2.9c5.8,1.9,11.8,3.3,18.3,5.1c-4.6,11.7-11.1,21.6-18.7,30.7c-23.3,27.8-53.5,43.1-89.3,47.9
		c-36.7,4.9-71.4-0.4-103.2-19.8c-27.3-16.6-45.8-40.5-56-70.8c-7.4-22-10.9-44.7-6.8-67.5c2.7-15.4,8.5-30.2,13.2-45.2
		c0.4-1.3,2.2-3,3.4-3.1C156.4,324.2,163.8,324.4,171.8,324.4z"/>
	<path d="M413,350.9c-7.5,0-14.5,0.1-21.6-0.1c-1.3,0-3.1-1.6-3.6-2.9c-18.4-47.6-46.9-89.8-71.5-134.2
		c-13.6-24.5-26-49.7-38.9-74.6c-0.5-1-1.2-1.8-2.6-3.8c-2.5,4.9-4.2,9.2-6.7,13.1c-1.2,1.8-3.8,3.6-5.9,3.8
		c-6.8,0.5-13.7,0.2-21.4,0.2c4.4-9.7,8.6-18.4,12.4-27.4c3.6-8.5,6.8-17.1,10-25.7c2.6-6.7,6.3-9.9,12-9.9c5.5,0,9.7,3.5,11.9,10
		c9.2,28.1,22.3,54.3,36.7,80c21.9,39.1,44.6,77.6,65.9,117c8.8,16.3,15.1,34,22.4,51.1C412.5,348.4,412.6,349.3,413,350.9z"/>
	<path d="M395.1,381c-4.2,0-8,0.1-11.9,0c-4.6-0.1-7.2-2.2-7.2-7.1c0-1.9,0.1-3.8,0-5.8c-0.2-4.9,2.4-7,7-7.2
		c3.4-0.2,6.9-0.5,10.3-0.8c0.9-0.1,2.2-0.3,2.5-0.8c3.8-6.9,10.2-3.6,15.6-4.1c0.8-0.1,2.2,0.5,2.5,1.1c3,6.5,8.9,4.4,14,4.6
		c7.2,0.3,8.5,1.8,8.5,10.4c0,7.8-1.5,9.5-8.7,9.7c-2.5,0-5,0-7.5,0c-1.5,4.5-0.3,7.1,2.8,10.4c5.8,6,12,8.3,20.5,8.4
		c12.4,0.2,21.3,11,21.6,23.5c0.1,4.2-0.3,8.5,0.2,12.7c0.3,2.7,2.5,5.2,2.8,7.9c0.7,5.2,1.7,10.6,0.8,15.6
		c-0.8,4.4-5.7,3.6-9.3,3.6c-7.1,0-14.3-0.1-21.4,0c-5.4,0.1-7.9-2.5-7.6-7.8c0.2-4.6-0.7-9.1,3.2-13.4c2.6-2.9,2.4-8.4-1.1-12.9
		c-1.5,1.6-2.5,2.7-3.4,3.9c-12.9,15.2-33.8,15-46.6-0.1c-1.4-1.7-4.4-2.9-6.7-3c-11.2-0.3-22.3-0.1-33.5-0.1c-7.1,0-9-1.9-9-8.8
		c0-4.2-0.1-8.5,0-12.7c0.1-7,1.8-8.7,9-8.7c11.2,0,22.3,0.2,33.5-0.2c2.6-0.1,5.4-1.8,7.8-3.3c2.9-1.8,5.1-4.8,8.2-6.3
		C395.9,387.7,396.3,385.2,395.1,381z"/>
	<path d="M188.8,352.6c0.2,71.2,31.7,115.8,103.7,127.2c-21.3,9-69.3,5.7-94.8-25.5C171.7,422.4,172.1,380.9,188.8,352.6z"/>
	<path d="M134.7,228.7c27.7,0,54.9,0,82.2,0c3,22.6-12.5,39.6-34.9,38c-15.2-1-28.2-7-38.8-18C137.2,242.6,134.7,236.6,134.7,228.7z
		 M144.9,233.5c-1.3,0-3.1,0-6.8,0c5.4,7.1,9.9,13,14.4,18.9c0.2-0.2,0.5-0.5,0.7-0.7C150.5,245.9,147.9,240,144.9,233.5z"/>
	<path d="M251.8,231.3c-37,21.6-43.2,35.1-34.6,73.4c-19,0-38,0-56,0c2-12.9,4-25.6,6.1-38.9c11.3,3.1,23.8,5.5,35.6-1.6
		c12.2-7.4,15.2-19.6,16.6-32.9C229.8,231.3,240.3,231.3,251.8,231.3z"/>
	<path d="M224,169.1c13.3,0,25.9,0,39.1,0c-0.5,7.5-1,14.7-1.6,21.8c-0.9,11.1-2,22.1-2.9,33.2c-0.3,3.4-1.3,5.4-5.2,5.3
		c-8.3-0.1-16.5,0.2-24.8-0.3c-1.6-0.1-4.5-2.7-4.5-4.1C223.9,206.6,224,188.2,224,169.1z"/>
	<path d="M464.7,501c0,9-3,13.5-8.4,16.1c-5.3,2.5-10.6,2-15.2-1.6c-4.9-3.7-7-8.9-5.4-14.8c2.5-9.2,5.4-18.4,8.7-27.4
		c0.7-1.9,3.3-4,5.3-4.4c1.7-0.3,4.9,1.5,5.5,3C458.8,482.5,462.1,493.1,464.7,501z"/>
	<path d="M218.6,221.2c-1.8,0.1-3.3,0.3-4.8,0.3c-25.2,0-50.5,0.1-75.7-0.1c-1.7,0-3.4-1.3-5.1-2c1.7-1.1,3.3-3.1,5-3.1
		c25.2-0.2,50.5-0.1,75.7-0.1C216.6,216.2,219.3,216.3,218.6,221.2z"/>
	<path d="M220.7,225.3c-5.8,2.9-85.9,2.4-89.3-0.3C135.1,222,216.6,222,220.7,225.3z"/>
	<path d="M233.7,279.4c-6.7,2.3-12.6,4.3-18.6,6.4c-3-12.9,1.3-21.3,12.4-24C229.4,267.2,231.4,272.9,233.7,279.4z"/>
	<path d="M189.1,306.6c9.2,0,18.5-0.1,27.7,0.1c1.9,0.1,3.8,1.6,5.7,2.4c-1.8,1-3.5,2.8-5.3,2.8c-19.1,0.2-38.1,0.2-57.2,0
		c-1.8,0-3.6-1.8-5.4-2.7c1.9-0.9,3.7-2.5,5.6-2.5C169.8,306.5,179.5,306.6,189.1,306.6z"/>
	<path d="M223.6,166.9c-0.8-3.6,0.2-5.6,3.9-5.6c10.7,0,21.5,0.1,32.2,0c3.6,0,4.8,1.7,4.1,5.6C250.5,166.9,237.3,166.9,223.6,166.9
		z"/>
	<path d="M230.3,254.9c1.7,2.1,2.8,3,3.2,4.1c2.1,5.9,4.2,11.9,6,18c0.3,1.1-0.7,2.6-1.1,3.9c-1.1-0.7-2.9-1.2-3.3-2.3
		c-2.3-6.1-4.5-12.2-6.3-18.5C228.6,259,229.6,257.4,230.3,254.9z"/>
	<rect x="239.4" y="156.9" width="8.3" height="3.1"/>
</g>
</svg>
